<svg xmlns:dc="http://purl.org/dc/elements/1.1/" xmlns:cc="http://creativecommons.org/ns#" xmlns:rdf="http://www.w3.org/1999/02/22-rdf-syntax-ns#" xmlns:svg="http://www.w3.org/2000/svg" xmlns="http://www.w3.org/2000/svg" xmlns:sodipodi="http://sodipodi.sourceforge.net/DTD/sodipodi-0.dtd" xmlns:inkscape="http://www.inkscape.org/namespaces/inkscape" version="1.1" x="0px" y="0px" viewBox="0 0 100 100"><g transform="translate(0,-952.36218)"><path style="text-indent:0;text-transform:none;direction:ltr;block-progression:tb;baseline-shift:baseline;color:#000000;enable-background:accumulate;" d="m 50,958.36217 c -24.2809,0 -43.9999999,19.72913 -43.9999999,44.00003 0,24.2803 19.7194999,44 43.9999999,44 24.2707,0 44,-19.7191 44,-44 0,-24.2714 -19.7286,-44.00003 -44,-44.00003 z m -2.0626,4.0625 c 0.021,-10e-4 0.042,10e-4 0.063,0 l 0,38.75003 a 2.000005,2.000005 0 1 0 4,0 l 0,-38.75003 c 21.1786,1.03934 38,18.49883 38,39.93753 0,22.1191 -17.8908,40 -40,40 -22.1196,0 -40,-17.8804 -40,-40 0,-21.4183 16.7791,-38.86721 37.9374,-39.93753 z" fill="#ffffff" fill-opacity="1" fill-rule="evenodd" stroke="none" marker="none" visibility="visible" display="inline" overflow="visible"/></g></svg>