<svg xmlns="http://www.w3.org/2000/svg" xmlns:xlink="http://www.w3.org/1999/xlink" version="1.1" x="0px" y="0px" viewBox="0 0 100 125" enable-background="new 0 0 100 100" xml:space="preserve"><path d="M80.158,3.801H21.042c-2.174,0-3.942,1.768-3.942,3.94v85.017c0,2.173,1.769,3.941,3.942,3.941h59.116  c2.173,0,3.941-1.769,3.941-3.941V7.741C84.1,5.569,82.331,3.801,80.158,3.801z M21.042,7.179h59.116  c0.311,0,0.564,0.252,0.564,0.562v20.27H20.479V7.741C20.479,7.432,20.73,7.179,21.042,7.179z M20.479,33.642V31.39h60.244v2.252  H20.479z M80.723,37.02v48.424H20.479V37.02H80.723z M80.158,93.322H21.042c-0.312,0-0.563-0.253-0.563-0.564V88.82h60.244v3.938  C80.723,93.069,80.469,93.322,80.158,93.322z"/><rect x="37.163" y="41.902" width="27.438" height="3.19"/><path d="M71.433,21.817c2.328,0,4.221-1.894,4.221-4.223c0-2.329-1.893-4.223-4.221-4.223c-2.33,0-4.224,1.894-4.224,4.223  C67.209,19.923,69.103,21.817,71.433,21.817z M71.433,15.624c1.086,0,1.97,0.884,1.97,1.971s-0.884,1.971-1.97,1.971  c-1.088,0-1.971-0.884-1.971-1.971S70.345,15.624,71.433,15.624z"/><path d="M60.172,21.817c2.328,0,4.221-1.894,4.221-4.223c0-2.329-1.893-4.223-4.221-4.223c-2.33,0-4.225,1.894-4.225,4.223  C55.947,19.923,57.842,21.817,60.172,21.817z M60.172,15.624c1.085,0,1.971,0.884,1.971,1.971s-0.886,1.971-1.971,1.971  c-1.088,0-1.971-0.884-1.971-1.971S59.084,15.624,60.172,15.624z"/><path d="M29.768,21.817c2.329,0,4.223-1.894,4.223-4.223c0-2.329-1.894-4.223-4.223-4.223c-2.329,0-4.223,1.894-4.223,4.223  C25.544,19.923,27.438,21.817,29.768,21.817z M29.768,15.624c1.086,0,1.971,0.884,1.971,1.971s-0.885,1.971-1.971,1.971  c-1.087,0-1.971-0.884-1.971-1.971S28.681,15.624,29.768,15.624z"/><path d="M52.752,13.724H37.186v7.742h15.566V13.724z M50.501,19.214H39.437v-3.238h11.064V19.214z"/><path d="M32.708,81.792h36.346c2.396,0,4.348-1.95,4.348-4.351V52.619c0-2.398-1.952-4.349-4.348-4.349H32.708  c-2.398,0-4.348,1.95-4.348,4.349v24.822C28.36,79.842,30.311,81.792,32.708,81.792z M48.751,78.414h-7.263V74.94h7.263V78.414z   M59.389,78.414H52.13V74.94h7.259V78.414z M70.023,77.441c0,0.536-0.435,0.973-0.969,0.973h-6.289V74.94h7.258V77.441z   M31.739,52.619c0-0.536,0.433-0.97,0.969-0.97h36.346c0.534,0,0.969,0.434,0.969,0.97v18.941H31.739V52.619z M31.739,74.94h6.373  v3.474h-5.403c-0.536,0-0.969-0.437-0.969-0.973V74.94z"/></svg>